<mxfile host="app.diagrams.net" modified="2023-05-26T01:46:36.806Z" agent="Mozilla/5.0 (Windows NT 10.0; Win64; x64) AppleWebKit/537.36 (KHTML, like Gecko) Chrome/113.0.0.0 Safari/537.36" version="21.3.3" etag="x127zydwx1chu6-e44dV" type="github">
  <diagram name="第 1 页" id="NVEBLmxHPtYreF8IRJ6X">
    <mxGraphModel>
      <root>
        <mxCell id="0" />
        <mxCell id="1" parent="0" />
      </root>
    </mxGraphModel>
  </diagram>
</mxfile>
